<svg width="361" height="421" viewBox="0 0 361 421" fill="none" xmlns="http://www.w3.org/2000/svg">
<mask id="path-1-inside-1_24_3" fill="white">
<path fill-rule="evenodd" clip-rule="evenodd" d="M344.521 100.151C344.521 122.112 337.453 142.422 325.467 158.93C337.01 175.252 343.792 195.179 343.792 216.691C343.792 271.908 299.107 316.688 243.927 316.842C243.979 318.171 244.005 319.507 244.005 320.849C244.005 376.161 199.166 421 143.854 421C88.5417 421 43.7024 376.161 43.7024 320.849C43.7024 293.944 54.3115 269.517 71.5746 251.523C30.1856 239.223 0 200.891 0 155.508C0 100.196 44.8393 55.3564 100.151 55.3564C118.051 55.3564 134.854 60.0523 149.396 68.2795C162.709 28.5932 200.2 0 244.369 0C299.681 0 344.521 44.8393 344.521 100.151Z"/>
</mask>
<path d="M325.467 158.93L316.566 152.467L311.935 158.845L316.486 165.281L325.467 158.93ZM243.927 316.842L243.896 305.842L232.486 305.874L232.935 317.275L243.927 316.842ZM71.5746 251.523L79.5123 259.138L92.0032 246.119L74.7081 240.979L71.5746 251.523ZM149.396 68.2795L143.979 77.8534L155.584 84.4191L159.825 71.7778L149.396 68.2795ZM334.369 165.392C347.672 147.068 355.521 124.51 355.521 100.151H333.521C333.521 119.713 327.233 137.775 316.566 152.467L334.369 165.392ZM354.792 216.691C354.792 192.831 347.262 170.697 334.448 152.578L316.486 165.281C326.759 179.806 332.792 197.528 332.792 216.691H354.792ZM243.957 327.842C305.199 327.671 354.792 277.973 354.792 216.691H332.792C332.792 265.843 293.015 305.705 243.896 305.842L243.957 327.842ZM232.935 317.275C232.982 318.46 233.005 319.651 233.005 320.849H255.005C255.005 319.363 254.976 317.883 254.918 316.41L232.935 317.275ZM233.005 320.849C233.005 370.086 193.091 410 143.854 410V432C205.241 432 255.005 382.236 255.005 320.849H233.005ZM143.854 410C94.6169 410 54.7024 370.086 54.7024 320.849H32.7024C32.7024 382.236 82.4666 432 143.854 432V410ZM54.7024 320.849C54.7024 296.894 64.1353 275.166 79.5123 259.138L63.6369 243.908C44.4877 263.868 32.7024 290.993 32.7024 320.849H54.7024ZM-11 155.508C-11 205.891 22.5139 248.419 68.441 262.067L74.7081 240.979C37.8573 230.027 11 195.89 11 155.508H-11ZM100.151 44.3564C38.7642 44.3564 -11 94.1206 -11 155.508H11C11 106.271 50.9144 66.3564 100.151 66.3564V44.3564ZM154.813 58.7055C138.662 49.5681 119.999 44.3564 100.151 44.3564V66.3564C116.104 66.3564 131.047 70.5366 143.979 77.8534L154.813 58.7055ZM244.369 -11C195.332 -11 153.738 20.7486 138.967 64.7811L159.825 71.7778C171.68 36.4378 205.068 11 244.369 11V-11ZM355.521 100.151C355.521 38.7642 305.757 -11 244.369 -11V11C293.606 11 333.521 50.9144 333.521 100.151H355.521Z" fill="#5EEAD4" mask="url(#path-1-inside-1_24_3)"/>
<path d="M217.446 154.418C233.552 159.835 240.71 165.416 251 178.728V346C248.616 345.765 247.232 345.473 244.434 343.823C175.868 286.494 101.83 233.155 164.926 168.206C186.08 151.152 194.528 151.758 217.446 154.418Z" fill="#D42D37"/>
<path d="M284.554 154.418C268.448 159.835 261.29 165.416 251 178.728V346C253.384 345.765 254.768 345.473 257.566 343.823C326.132 286.494 400.17 233.155 337.074 168.206C315.92 151.152 307.472 151.758 284.554 154.418Z" fill="#D42D37"/>
</svg>
